<svg xmlns="http://www.w3.org/2000/svg" viewBox="0 0 1440 320"><path fill="#0099ff" fill-opacity="1" d="M0,96L34.3,112C68.6,128,137,160,206,181.3C274.3,203,343,213,411,186.7C480,160,549,96,617,80C685.7,64,754,96,823,133.3C891.4,171,960,213,1029,224C1097.1,235,1166,213,1234,181.3C1302.9,149,1371,107,1406,85.3L1440,64L1440,320L1405.7,320C1371.4,320,1303,320,1234,320C1165.7,320,1097,320,1029,320C960,320,891,320,823,320C754.3,320,686,320,617,320C548.6,320,480,320,411,320C342.9,320,274,320,206,320C137.1,320,69,320,34,320L0,320Z"></path></svg>